<?xml version="1.0" encoding="UTF-8"?>
<svg version="1.1" xmlns="http://www.w3.org/2000/svg" width="256" height="256">
<path d="M0 0 C1.64280693 0.58240448 1.64280693 0.58240448 3.31880188 1.17657471 C6.87606561 2.43879062 10.43016088 3.70969411 13.984375 4.98046875 C18.87271222 6.71762553 23.76259449 8.45041629 28.65234375 10.18359375 C29.86079453 10.61265518 31.0692453 11.04171661 32.3143158 11.48377991 C44.04160592 15.6435199 55.80718555 19.68616232 67.58886719 23.6887207 C68.58396553 24.02743195 68.58396553 24.02743195 69.59916687 24.37298584 C71.33586663 24.96377657 73.0732944 25.55242606 74.81079102 26.14086914 C82.35911753 28.79271128 82.35911753 28.79271128 83.734375 30.16796875 C85.64890468 64.2287874 83.27336178 101.39383013 67.734375 132.16796875 C66.22387963 135.59793839 65.30768387 138.40170833 65.734375 142.16796875 C68.53624338 145.8517957 72.04407931 148.41448024 75.734375 151.16796875 C77.05898956 152.29977552 78.3726651 153.44458809 79.671875 154.60546875 C80.30867187 155.15976563 80.94546875 155.7140625 81.6015625 156.28515625 C85.14502738 159.41326994 88.62277554 162.6134805 92.109375 165.8046875 C94.29896498 167.77597014 96.52267324 169.67149022 98.796875 171.54296875 C101.93594456 174.34809474 103.4210895 176.16439867 104.0703125 180.31640625 C104.16644312 185.79585142 103.43631513 188.86571401 99.734375 193.16796875 C95.25536967 197.30243521 91.95915712 199.23859675 85.796875 199.04296875 C78.5993914 198.30400739 73.37281256 192.08074832 68.5859375 187.21484375 C67.92854584 186.55462219 67.27115417 185.89440063 66.59384155 185.21417236 C64.51091238 183.12011613 62.43507542 181.0191881 60.359375 178.91796875 C58.94187024 177.49042454 57.52390614 176.06333628 56.10546875 174.63671875 C52.64310006 171.15238891 49.18707156 167.66188207 45.734375 164.16796875 C44.97382813 164.79316406 44.21328125 165.41835937 43.4296875 166.0625 C40.734375 168.16796875 40.734375 168.16796875 37.609375 169.85546875 C34.36456487 171.64046025 31.72670292 173.81651271 28.921875 176.23046875 C22.12383674 181.90170888 14.67724735 186.34577555 7.05078125 190.81152344 C5.52120859 191.70721333 3.99507421 192.60880398 2.47265625 193.51660156 C0.33824966 194.78874567 -1.80526103 196.0437087 -3.953125 197.29296875 C-4.58758545 197.67130859 -5.2220459 198.04964844 -5.87573242 198.43945312 C-10.05517475 200.8229503 -13.43361151 202.21443042 -18.265625 202.16796875 C-21.74241996 200.96547397 -24.8704116 199.26885042 -28.078125 197.48046875 C-28.9944873 196.98369629 -29.91084961 196.48692383 -30.85498047 195.97509766 C-44.19348667 188.61393689 -56.78498727 180.19512831 -68.265625 170.16796875 C-69.090625 169.47574219 -69.915625 168.78351563 -70.765625 168.0703125 C-93.26373923 148.70084228 -106.94021362 122.32397582 -112.453125 93.41796875 C-112.62030029 92.56195068 -112.78747559 91.70593262 -112.9597168 90.82397461 C-115.60578457 76.08042849 -115.40862273 61.03096216 -115.328125 46.10546875 C-115.32308982 44.44856909 -115.31853055 42.79166792 -115.31445312 41.13476562 C-115.30363062 37.14579459 -115.28648257 33.1568994 -115.265625 29.16796875 C-110.00044296 27.17846039 -104.72124187 25.24592375 -99.41015625 23.3828125 C-98.67888016 23.12562439 -97.94760406 22.86843628 -97.19416809 22.60345459 C-94.82250217 21.76979684 -92.45035038 20.93753308 -90.078125 20.10546875 C-89.2611615 19.81862213 -88.444198 19.53177551 -87.60247803 19.23623657 C-75.53762609 15.00059088 -63.46567959 10.78608587 -51.3659668 6.65087891 C-45.75966949 4.73296646 -40.17171146 2.78054739 -34.609375 0.73828125 C-33.5579834 0.35712158 -32.5065918 -0.02403809 -31.42333984 -0.41674805 C-29.47101115 -1.12667147 -27.52297577 -1.8485746 -25.58056641 -2.58520508 C-24.71608887 -2.8973999 -23.85161133 -3.20959473 -22.9609375 -3.53125 C-22.21859863 -3.80799561 -21.47625977 -4.08474121 -20.71142578 -4.36987305 C-13.60296953 -5.71308603 -6.5807494 -2.36985807 0 0 Z " fill="#F5F5F5" transform="translate(143.265625,23.83203125)"/>
<path d="M0 0 C0.9168457 0.00684814 1.83369141 0.01369629 2.77832031 0.02075195 C9.96605368 0.19046586 16.08931372 1.3233172 22.625 4.4375 C23.79675781 4.9634375 23.79675781 4.9634375 24.9921875 5.5 C37.72889033 11.84631559 46.89832799 22.96081928 51.8984375 36.11328125 C55.62621766 48.0381694 54.77349874 62.11657139 49.625 73.4375 C41.75188524 87.52713054 31.13016524 96.74017312 16 102.4375 C5.23438531 105.19149446 -9.23470932 105.14102107 -19.375 100.4375 C-20.26058594 100.04691406 -21.14617187 99.65632813 -22.05859375 99.25390625 C-34.87527979 92.97888521 -43.79347259 82.1203508 -49.25 69.125 C-53.41521081 56.61584416 -53.07351165 42.73059128 -47.98828125 30.5546875 C-41.07523004 17.19726652 -30.14185226 6.5619696 -15.703125 1.79296875 C-10.42394624 0.28309427 -5.46980354 -0.06328447 0 0 Z " fill="#0868C4" transform="translate(128.375,60.5625)"/>
<path d="M0 0 C0 6.27 0 12.54 0 19 C-1.3509375 19.17015625 -2.701875 19.3403125 -4.09375 19.515625 C-5.89593449 19.75967082 -7.69801241 20.0045045 -9.5 20.25 C-10.8303125 20.41435547 -10.8303125 20.41435547 -12.1875 20.58203125 C-17.44772201 21.31691521 -21.62715387 22.50081809 -26.28417969 25.06347656 C-28.40515299 26.22113928 -30.59002385 26.9751638 -32.875 27.75 C-38.8275602 30.09273809 -43.27334223 33.75657881 -48 38 C-48.78632812 38.70382813 -49.57265625 39.40765625 -50.3828125 40.1328125 C-58.99312607 48.27612601 -64.67718762 58.02670703 -69 69 C-69.32097656 69.77988281 -69.64195313 70.55976562 -69.97265625 71.36328125 C-74.49789203 84.56013166 -73.3944722 101.9492467 -69 115 C-68.58621094 116.23105469 -68.17242187 117.46210938 -67.74609375 118.73046875 C-64.74037088 127.11657252 -60.67421613 134.10193334 -55 141 C-54.44570312 141.71671875 -53.89140625 142.4334375 -53.3203125 143.171875 C-42.53401179 156.48702134 -26.48111683 163.72727314 -10 167 C-6.7 167.33 -3.4 167.66 0 168 C0 180.87 0 193.74 0 207 C-19.12142664 200.62619112 -36.91188548 188.17792054 -52 175 C-52.825 174.30777344 -53.65 173.61554688 -54.5 172.90234375 C-76.99811423 153.53287353 -90.67458862 127.15600707 -96.1875 98.25 C-96.35467529 97.39398193 -96.52185059 96.53796387 -96.6940918 95.65600586 C-99.34015957 80.91245974 -99.14299773 65.86299341 -99.0625 50.9375 C-99.05746482 49.28060034 -99.05290555 47.62369917 -99.04882812 45.96679688 C-99.03800562 41.97782584 -99.02085757 37.98893065 -99 34 C-93.73481796 32.01049164 -88.45561687 30.077955 -83.14453125 28.21484375 C-82.41325516 27.95765564 -81.68197906 27.70046753 -80.92854309 27.43548584 C-78.55687717 26.60182809 -76.18472538 25.76956433 -73.8125 24.9375 C-72.9955365 24.65065338 -72.178573 24.36380676 -71.33685303 24.06826782 C-58.1323496 19.43252108 -44.91153263 14.84657335 -31.67578125 10.30078125 C-27.16764636 8.75113044 -22.66561442 7.18530317 -18.16796875 5.60546875 C-17.09401855 5.2288208 -16.02006836 4.85217285 -14.91357422 4.46411133 C-12.89996103 3.75692125 -10.8872117 3.04726488 -8.87548828 2.3347168 C-7.99489746 2.02574463 -7.11430664 1.71677246 -6.20703125 1.3984375 C-5.4385083 1.12692871 -4.66998535 0.85541992 -3.87817383 0.57568359 C-2 0 -2 0 0 0 Z " fill="#0154B1" transform="translate(127,19)"/>
<path d="M0 0 C0.79535156 0.41894531 1.59070313 0.83789062 2.41015625 1.26953125 C17.31002441 9.62911725 28.81742415 23.42975369 33.57910156 40.01733398 C37.78223959 57.73672753 35.56562126 75.76859465 26.42578125 91.41796875 C24.8388692 93.80021264 24.8388692 93.80021264 25 96 C26.68522729 97.70484466 26.68522729 97.70484466 28.8125 99.4375 C34.26758744 104.03805644 34.26758744 104.03805644 36 106 C36 108 36 108 33.85546875 110.26171875 C32.91316406 111.16535156 31.97085938 112.06898438 31 113 C30.05500982 113.96133384 29.11362027 114.92621975 28.17578125 115.89453125 C27.2213791 116.86721196 26.26695188 117.83986808 25.3125 118.8125 C24.82716797 119.31458984 24.34183594 119.81667969 23.84179688 120.33398438 C22.59875394 121.59417273 21.30300108 122.80191044 20 124 C19.34 124 18.68 124 18 124 C17.90847656 123.40445313 17.81695312 122.80890625 17.72265625 122.1953125 C16.82697321 119.47437268 15.68411796 118.60875366 13.4375 116.875 C11.49609375 115.3671875 11.49609375 115.3671875 10 114 C10 113.34 10 112.68 10 112 C9.35675781 112.37511719 8.71351563 112.75023437 8.05078125 113.13671875 C-9.07257026 122.83425163 -27.94210787 128.61511565 -47.52246094 123.56396484 C-66.94124052 117.94504419 -80.45936347 107.001738 -91 90 C-91.43054688 89.32582031 -91.86109375 88.65164062 -92.3046875 87.95703125 C-99.66732198 75.0296149 -101.08843676 57.61270812 -97.68359375 43.3828125 C-92.39580226 24.95108218 -82.35404456 10.22613538 -65.71484375 0.390625 C-61.27273848 -1.88475554 -56.76134822 -3.5286821 -52 -5 C-51.15050781 -5.2990625 -50.30101562 -5.598125 -49.42578125 -5.90625 C-33.28560937 -11.11742657 -14.75471825 -7.94913932 0 0 Z M-72.5625 24.625 C-75.52383027 28.23198719 -78.09614078 31.7333155 -80 36 C-80.37125 36.79148437 -80.7425 37.58296875 -81.125 38.3984375 C-86.25254261 51.11047022 -85.8664422 66.29393011 -80.61328125 78.88671875 C-77.93107151 84.06279905 -74.75505403 88.55192281 -71 93 C-70.42894531 93.71800781 -69.85789062 94.43601562 -69.26953125 95.17578125 C-62.94740869 102.36318328 -51.65762183 108.91892293 -42 110 C-26.63136514 110.94090276 -26.63136514 110.94090276 -12 107 C-10.67162109 106.39671875 -10.67162109 106.39671875 -9.31640625 105.78125 C4.21017286 99.02734087 14.38729176 88.1316584 19.5 73.8125 C23.12008289 60.31799457 21.92433932 46.4622115 15.45703125 34.03515625 C7.27184373 20.38069011 -4.58188408 11.85545548 -19.85400391 7.46728516 C-39.85534854 3.11204356 -58.88790028 9.7833658 -72.5625 24.625 Z " fill="#233C59" transform="translate(161,54)"/>
<path d="M0 0 C0.9168457 0.00684814 1.83369141 0.01369629 2.77832031 0.02075195 C9.96605368 0.19046586 16.08931372 1.3233172 22.625 4.4375 C23.79675781 4.9634375 23.79675781 4.9634375 24.9921875 5.5 C37.72889033 11.84631559 46.89832799 22.96081928 51.8984375 36.11328125 C55.62621766 48.0381694 54.77349874 62.11657139 49.625 73.4375 C41.75188524 87.52713054 31.13016524 96.74017312 16 102.4375 C5.23438531 105.19149446 -9.23470932 105.14102107 -19.375 100.4375 C-20.26058594 100.04691406 -21.14617187 99.65632813 -22.05859375 99.25390625 C-34.87527979 92.97888521 -43.79347259 82.1203508 -49.25 69.125 C-53.41521081 56.61584416 -53.07351165 42.73059128 -47.98828125 30.5546875 C-41.07523004 17.19726652 -30.14185226 6.5619696 -15.703125 1.79296875 C-10.42394624 0.28309427 -5.46980354 -0.06328447 0 0 Z M-23.375 21.4375 C-24.21804687 22.03111328 -24.21804687 22.03111328 -25.078125 22.63671875 C-32.20383175 28.04296148 -36.78557234 36.69564789 -38.375 45.4375 C-39.56939448 57.81577007 -36.02501922 68.70969778 -28.375 78.4375 C-26.19718654 80.70798637 -23.94213625 82.62430425 -21.375 84.4375 C-20.59125 84.994375 -19.8075 85.55125 -19 86.125 C-8.71470603 91.26764698 1.82655393 92.1996379 12.9375 88.8125 C23.9578041 84.63036063 31.71992811 78.09646777 36.765625 67.4296875 C37.04921875 66.77226563 37.3328125 66.11484375 37.625 65.4375 C37.98464844 64.69242188 38.34429687 63.94734375 38.71484375 63.1796875 C39.88063369 59.66730751 39.96760098 56.34820914 39.9375 52.6875 C39.93186035 51.9752124 39.9262207 51.2629248 39.92041016 50.52905273 C39.68243564 40.19129827 36.01465246 32.40757657 29.1015625 24.75 C20.02532034 16.24932442 9.18443886 13.05615394 -2.94921875 13.15234375 C-10.56728138 13.78645843 -17.34911903 16.78113743 -23.375 21.4375 Z " fill="#EDEFF1" transform="translate(128.375,60.5625)"/>
<path d="M0 0 C9.38301871 2.34149741 18.36387403 5.54236355 27.44204712 8.83877563 C45.26129576 15.30591738 63.15633473 21.52911744 81.11181641 27.60668945 C81.94187698 27.88802734 82.77193756 28.16936523 83.62715149 28.45922852 C85.16930588 28.9815586 86.71190646 29.50257408 88.25505066 30.02197266 C98.48267066 33.48267066 98.48267066 33.48267066 100 35 C101.89905947 68.78559288 99.83100262 106.58907703 84 137 C78.88021867 134.693156 74.67675882 131.22469912 71 127 C70.75 124 70.75 124 72 121 C79.0804772 102.83703675 79.64396752 83.0552448 72 65 C63.21384124 45.53091867 49.68936508 34.20154736 31 25 C29.78957031 24.34644531 29.78957031 24.34644531 28.5546875 23.6796875 C19.85670069 19.4709842 9.48304513 19.66363852 0 19 C0 12.73 0 6.46 0 0 Z " fill="#F27B02" transform="translate(127,19)"/>
<path d="M0 0 C7.62134927 3.40342696 13.88626083 10.52225934 19.92724609 16.19506836 C24.59199097 20.55773504 29.42579358 24.69614003 34.37792969 28.72949219 C38.52780969 32.19135939 42.33851792 35.78895773 43.578125 41.2578125 C43.50048209 46.61517296 42.66213852 49.71254003 39.046875 53.9140625 C34.56786967 58.04852896 31.27165712 59.9846905 25.109375 59.7890625 C17.80652816 59.03928356 12.42415958 52.59885733 7.53125 47.69921875 C6.83420959 47.00646347 6.13716919 46.31370819 5.41900635 45.59996033 C3.9542075 44.14088062 2.49198995 42.67920541 1.03222656 41.21508789 C-1.20121458 38.97847563 -3.44768406 36.75554697 -5.6953125 34.53320312 C-7.12060179 33.11018595 -8.54510829 31.68638423 -9.96875 30.26171875 C-10.63956604 29.60011246 -11.31038208 28.93850616 -12.00152588 28.2568512 C-15.20687609 25.0193581 -17.70669434 22.42832329 -18.953125 17.9140625 C-15.98013556 14.55568554 -12.97604486 11.2275576 -9.953125 7.9140625 C-9.21449219 7.09550781 -8.47585937 6.27695313 -7.71484375 5.43359375 C-6.68810547 4.34111328 -6.68810547 4.34111328 -5.640625 3.2265625 C-5.02574219 2.56269531 -4.41085938 1.89882812 -3.77734375 1.21484375 C-1.953125 -0.0859375 -1.953125 -0.0859375 0 0 Z " fill="#FB8C01" transform="translate(203.953125,163.0859375)"/>
<path d="M0 0 C5.81277053 3.44317189 9.38395582 7.28073641 11.875 13.5625 C13.06848251 20.01986853 13.17394808 27.45910874 10.203125 33.41015625 C5.99313304 39.21517093 0.54502562 44.19509072 -6.5625 45.9375 C-14.21005143 46.74815999 -21.31520258 46.83922567 -27.5625 41.9375 C-33.76233415 36.16351305 -37.59005504 30.25014908 -38.0625 21.625 C-37.81717932 14.4714491 -35.52313494 8.78406494 -30.33203125 3.79296875 C-21.69782426 -3.12284794 -10.28406981 -4.78146538 0 0 Z " fill="#E1E0E1" transform="translate(141.5625,91.0625)"/>
<path d="M0 0 C2.52232349 1.93493309 4.64823598 4.17890526 6.8125 6.5 C7.40998047 7.12003906 8.00746094 7.74007812 8.62304688 8.37890625 C10.09357441 9.90825488 11.5483573 11.45271466 13 13 C3.92617495 22.37296214 -6.73677012 29.41450378 -18.00146484 35.85595703 C-20.11867951 37.06793699 -22.2251811 38.29744706 -24.33203125 39.52734375 C-25.762369 40.35269316 -27.19334284 41.17694137 -28.625 42 C-29.28798096 42.38615479 -29.95096191 42.77230957 -30.6340332 43.17016602 C-34.24972915 45.21966277 -36.83197628 46.16639526 -41 47 C-41 34.13 -41 21.26 -41 8 C-36.38 7.67 -31.76 7.34 -27 7 C-22.71571018 6.21942583 -22.71571018 6.21942583 -19.0625 5.125 C-17.87785156 4.79757813 -16.69320312 4.47015625 -15.47265625 4.1328125 C-11.92466057 3.0441201 -11.92466057 3.0441201 -8.37109375 1.3671875 C-3.14789086 -0.75114507 -3.14789086 -0.75114507 0 0 Z " fill="#F06601" transform="translate(168,179)"/>
<path d="M0 0 C0.99 0.33 1.98 0.66 3 1 C3.58648976 14.13085411 2.62877575 23.46918079 -6.08984375 33.96484375 C-13.15197532 41.4891189 -22.70421949 46.43306674 -33.06640625 47.23828125 C-45.73497256 47.50722288 -54.63135789 44.63156468 -64 36 C-66.625 33.25 -66.625 33.25 -68 31 C-66.797055 27.39116501 -65.91032374 27.0178107 -62.6875 25.1875 C-61.90761719 24.72730469 -61.12773438 24.26710937 -60.32421875 23.79296875 C-58 23 -58 23 -55.9609375 23.671875 C-53.17858725 25.55633533 -50.54461616 27.58589634 -47.90234375 29.66015625 C-42.73719032 33.29803639 -36.01460275 32.59598 -30 32 C-23.13730926 29.91501358 -17.79582637 26.10851529 -14 20 C-12.43902796 16.71827138 -11.25194183 13.41749088 -10.61328125 9.82421875 C-10.41089844 9.22222656 -10.20851562 8.62023437 -10 8 C-9.01 7.67 -8.02 7.34 -7 7 C-5.49985609 5.66710346 -5.49985609 5.66710346 -4 4 C-2.66666667 2.66666667 -1.33333333 1.33333333 0 0 Z " fill="#07358C" transform="translate(165,104)"/>
<path d="M0 0 C5.83918731 3.45881977 9.40890085 7.29891958 11.875 13.625 C12.95102997 19.02645735 12.10518193 24.52386275 11.4375 29.9375 C5.85776292 27.43581568 1.53940831 23.27905516 -1.0625 17.75 C-3.10687496 13.91679695 -5.53637923 12.42342911 -9.5625 10.9375 C-13.94931329 10.24484527 -15.96322626 10.63786313 -19.9375 12.625 C-22.23898415 14.71616576 -22.54799143 15.81165041 -22.91015625 18.953125 C-22.93980469 20.08234375 -22.96945313 21.2115625 -23 22.375 C-23.17639721 28.35215165 -23.17639721 28.35215165 -25.0234375 31.15234375 C-26.85330682 32.79304937 -28.27950167 34.0205193 -30.5625 34.9375 C-32.68359375 34.75 -32.68359375 34.75 -34.5625 33.9375 C-38.03355553 28.23505163 -38.49214598 22.49917603 -37.5625 15.9375 C-35.18358251 8.04225211 -30.51223814 3.19323852 -23.5625 -1.0625 C-16.30204452 -3.48265183 -6.95022975 -3.23143304 0 0 Z " fill="#F9FAFA" transform="translate(141.5625,91.0625)"/>
<path d="M0 0 C4.4666047 1.11665118 6.49292335 2.98266895 9.6875 6.0625 C10.24203857 6.58545654 10.79657715 7.10841309 11.36791992 7.6472168 C12.5877486 8.79880331 13.8044796 9.95367741 15.01855469 11.11132812 C17.86681446 13.82622926 20.73061408 16.52451173 23.5949707 19.22241211 C25.03572211 20.58036353 26.47447838 21.94043598 27.91088867 23.30297852 C32.50939218 27.65238042 37.20676981 31.86624914 42 36 C41.33784052 39.67245883 40.50310345 42.18761274 38.4375 45.3125 C37.98246094 46.00988281 37.52742188 46.70726562 37.05859375 47.42578125 C36.53458984 48.20501953 36.53458984 48.20501953 36 49 C32.3757481 48.47296273 30.28096262 47.80086278 27.5859375 45.3203125 C26.55678223 44.37333496 26.55678223 44.37333496 25.50683594 43.40722656 C20.47542866 38.57574275 15.4835947 33.70857781 10.54345703 28.78369141 C8.6154299 26.86547862 6.6769866 24.9581935 4.73828125 23.05078125 C3.50455315 21.82357499 2.27145724 20.59573276 1.0390625 19.3671875 C0.46201569 18.80248749 -0.11503113 18.23778748 -0.70956421 17.65597534 C-3.71805521 14.63059576 -5.75764275 12.19478271 -7 8 C-4.69 5.36 -2.38 2.72 0 0 Z " fill="#DA5801" transform="translate(192,173)"/>
<path d="M0 0 C3.84994503 1.47817846 5.14466022 3.42179796 7.1875 6.9375 C24.0290503 34.36312437 50.79409239 51.11855856 79 65 C79.16899129 61.9792807 79.33526129 58.95845177 79.5 55.9375 C79.54769531 55.08994141 79.59539062 54.24238281 79.64453125 53.36914062 C79.90391436 48.57055312 80.05216285 43.80550212 80 39 C79.13761719 38.88785156 78.27523437 38.77570313 77.38671875 38.66015625 C65.89624572 36.80372291 56.29210037 32.32039359 46 27 C46 26.34 46 25.68 46 25 C45.34 24.814375 44.68 24.62875 44 24.4375 C39.73094732 22.39191226 36.25836294 19.42815357 33 16 C33 15.34 33 14.68 33 14 C32.401875 13.7525 31.80375 13.505 31.1875 13.25 C28.65905497 11.80517427 27.44929383 10.51719455 26 8 C26.33 7.01 26.66 6.02 27 5 C27.67804688 5.56847656 28.35609375 6.13695312 29.0546875 6.72265625 C45.46132146 20.33425423 60.56262542 27.85626254 82 30 C82 42.87 82 55.74 82 69 C62.87857336 62.62619112 45.08811452 50.17792054 30 37 C29.175 36.30777344 28.35 35.61554688 27.5 34.90234375 C16.26681433 25.23127296 7.46539979 13.75569545 0 1 C0 0.67 0 0.34 0 0 Z " fill="#083B86" transform="translate(45,157)"/>
<path d="M0 0 C2.52454084 1.91127339 4.64850022 4.13357604 6.8125 6.4375 C7.7087207 7.35499023 7.7087207 7.35499023 8.62304688 8.29101562 C13 12.81803571 13 12.81803571 13 14 C10.25 14.75 10.25 14.75 7 15 C5.64567325 13.68799596 4.31266518 12.35368596 3 11 C-1.41296392 10.29793756 -4.54850135 11.51299203 -8.62890625 13.1328125 C-19.17630898 16.99034694 -28.92865734 17.28881763 -40 17 C-40 26.9 -40 36.8 -40 47 C-40.33 47 -40.66 47 -41 47 C-41 34.13 -41 21.26 -41 8 C-36.38 7.67 -31.76 7.34 -27 7 C-22.71571018 6.21942583 -22.71571018 6.21942583 -19.0625 5.125 C-17.87785156 4.79757813 -16.69320312 4.47015625 -15.47265625 4.1328125 C-11.92466057 3.0441201 -11.92466057 3.0441201 -8.37109375 1.3671875 C-3.15558097 -0.74802626 -3.15558097 -0.74802626 0 0 Z " fill="#D35E0D" transform="translate(168,179)"/>
<path d="M0 0 C4.71585113 1.39351277 7.27494426 4.05654054 10.3125 7.75 C10.78743896 8.31912109 11.26237793 8.88824219 11.75170898 9.47460938 C25.36250897 26.27003893 31.21695847 45.51500572 29 67 C26.04793594 84.43394747 26.04793594 84.43394747 21 90 C19.68 89.67 18.36 89.34 17 89 C15.67706812 85.36825708 16.35087902 83.4443574 17.8125 79.9375 C24.40329827 62.53688035 24.24973455 43.12405656 17 26 C13.29759325 17.79590763 8.69856432 10.94935497 2.8203125 4.14453125 C1 2 1 2 0 0 Z " fill="#E76909" transform="translate(182,58)"/>
<path d="M0 0 C7.27692308 3.55384615 7.27692308 3.55384615 9 7 C9.43808718 11.28819956 9.44926618 14.94422448 7.75 18.9375 C5.35610205 21.75887973 3.25503765 22.80613239 -0.40234375 23.37109375 C-7.30653305 23.55194308 -7.30653305 23.55194308 -11.0625 20.5625 C-11.701875 19.716875 -12.34125 18.87125 -13 18 C-13.33 17.67 -13.66 17.34 -14 17 C-14.67623679 12.48919323 -15.21544594 7.90431886 -12.68359375 3.9375 C-8.7201258 0.24890343 -5.45797587 -1.05329359 0 0 Z " fill="#E96506" transform="translate(132,101)"/>
<path d="M0 0 C7.51197982 5.87894073 7.51197982 5.87894073 8.3359375 11.1484375 C8.43206812 16.62788267 7.70194013 19.69774526 4 24 C0.91282688 26.84969826 -1.92657052 28.87980689 -6 30 C-8.8125 29.625 -8.8125 29.625 -11 29 C-9.98691049 26.27245132 -8.93786582 23.90201917 -7.375 21.4375 C-5.67245254 18.88577713 -5.67245254 18.88577713 -6 15 C-4.906875 14.731875 -3.81375 14.46375 -2.6875 14.1875 C1.37182394 12.97376427 1.37182394 12.97376427 4 10 C4.4569098 5.9991076 4.4569098 5.9991076 2 3.875 C1.34 3.25625 0.68 2.6375 0 2 C0 1.34 0 0.68 0 0 Z " fill="#F66800" transform="translate(239,193)"/>
<path d="M0 0 C2.88517714 1.38671366 5.5643083 2.91226425 8 5 C8 5.66 8 6.32 8 7 C6.576875 7.556875 6.576875 7.556875 5.125 8.125 C0.95607964 9.89955062 -2.82130441 12.21696477 -6.66796875 14.59765625 C-8.74009752 15.84371023 -10.82186668 16.95349457 -13 18 C-14.71570437 16.28429563 -14.37338644 14.15801623 -14.5 11.8125 C-14.47083686 8.61288727 -14.41581802 6.65148936 -12.68359375 3.9375 C-8.7201258 0.24890343 -5.45797587 -1.05329359 0 0 Z " fill="#FB8E09" transform="translate(132,101)"/>
<path d="M0 0 C3.84994503 1.47817846 5.14466022 3.42179796 7.1875 6.9375 C21.37233159 30.03679051 43.29874883 46.56756076 67 59 C68.341712 59.71508455 69.6828194 60.43130424 71.0234375 61.1484375 C74.67958273 63.10407988 78.33902754 65.05341005 82 67 C82 67.66 82 68.32 82 69 C62.94417741 63.25958139 44.82645062 49.94938395 30 37 C29.175 36.30777344 28.35 35.61554688 27.5 34.90234375 C16.26681433 25.23127296 7.46539979 13.75569545 0 1 C0 0.67 0 0.34 0 0 Z " fill="#001777" transform="translate(45,157)"/>
<path d="M0 0 C0 6.27 0 12.54 0 19 C-3.63 19.33 -7.26 19.66 -11 20 C-8 18 -8 18 -2 18 C-2.495 10.575 -2.495 10.575 -3 3 C-7.15857889 4.47487487 -11.31712277 5.94984778 -15.47558594 7.42504883 C-16.88344445 7.92445161 -18.29132136 8.42380253 -19.69921875 8.9230957 C-21.06707224 9.40819517 -22.43489041 9.89339425 -23.80267334 10.37869263 C-25.16895628 10.86333662 -26.53537084 11.34760974 -27.9019165 11.83151245 C-31.29812731 13.03531937 -34.69070338 14.24796853 -38.07714844 15.47900391 C-38.7212265 15.71218826 -39.36530457 15.94537262 -40.02890015 16.18562317 C-41.79273135 16.82496555 -43.55534147 17.46767382 -45.31787109 18.1105957 C-48 19 -48 19 -50 19 C-50 18.34 -50 17.68 -50 17 C-40.66962834 13.65833568 -31.33625396 10.32519032 -22 7 C-20.38786621 6.42548096 -20.38786621 6.42548096 -18.74316406 5.83935547 C-15.95507475 4.847518 -13.16542584 3.86024142 -10.375 2.875 C-9.54774414 2.58036865 -8.72048828 2.2857373 -7.86816406 1.98217773 C-2.23098808 0 -2.23098808 0 0 0 Z " fill="#096FC9" transform="translate(127,19)"/>
<path d="M0 0 C0.33 0 0.66 0 1 0 C1.09498779 0.69859131 1.18997559 1.39718262 1.2878418 2.11694336 C3.89187299 20.93551184 7.07737401 37.95369665 15.546875 55.0234375 C17 58 17 58 18 61 C15 60 15 60 13.31640625 57.078125 C12.71769469 55.80862692 12.133968 54.53199268 11.5625 53.25 C11.25465576 52.56752197 10.94681152 51.88504395 10.62963867 51.18188477 C6.28014865 41.32418682 3.74790984 31.37489496 1.75 20.8125 C1.5744458 19.89782959 1.3988916 18.98315918 1.21801758 18.04077148 C0.13410061 11.97007046 -0.20974579 6.16169861 0 0 Z " fill="#0036A0" transform="translate(29,96)"/>
<path d="M0 0 C3.84994503 1.47817846 5.14466022 3.42179796 7.1875 6.9375 C13.21240996 16.76491176 20.69560958 25.04898789 29 33 C27.515 33.495 27.515 33.495 26 34 C15.66435516 24.26255968 7.50000785 12.9937495 0 1 C0 0.67 0 0.34 0 0 Z " fill="#002187" transform="translate(45,157)"/>
<path d="M0 0 C0.56332031 0.37511719 1.12664062 0.75023437 1.70703125 1.13671875 C-0.65778795 3.041712 -3.00894699 4.93384607 -5.48046875 6.69921875 C-7.54992349 8.18932735 -7.54992349 8.18932735 -9.29296875 11.13671875 C-10.85546875 9.32421875 -10.85546875 9.32421875 -12.29296875 7.13671875 C-11.09002375 3.52788376 -10.20329249 3.15452945 -6.98046875 1.32421875 C-5.81064453 0.63392578 -5.81064453 0.63392578 -4.6171875 -0.0703125 C-2.29296875 -0.86328125 -2.29296875 -0.86328125 0 0 Z " fill="#073D9B" transform="translate(109.29296875,127.86328125)"/>
<path d="M0 0 C5.08826532 1.44447092 7.59287853 4.4008711 10.875 8.3125 C11.38546875 8.88162109 11.8959375 9.45074219 12.421875 10.03710938 C16.04314045 14.29943668 16.04314045 14.29943668 15.8203125 17.91796875 C15.41425781 18.94857422 15.41425781 18.94857422 15 20 C12.20253817 16.55167456 9.53623132 13.0376692 6.9375 9.4375 C4.64999713 6.27187702 2.353951 3.11660179 0 0 Z " fill="#EB710E" transform="translate(182,58)"/>
<path d="M0 0 C5.90517223 0.45424402 10.02205642 3.063664 15 6 C16.68496497 6.9420486 18.37237429 7.87974194 20.0625 8.8125 C21.375 9.54166667 22.6875 10.27083333 24 11 C24 11.66 24 12.32 24 13 C18.69613122 11.44352176 14.03961608 9.08944985 9.1875 6.5 C8.41212891 6.09652344 7.63675781 5.69304687 6.83789062 5.27734375 C6.10119141 4.88675781 5.36449219 4.49617187 4.60546875 4.09375 C3.60229614 3.56297852 3.60229614 3.56297852 2.57885742 3.02148438 C1 2 1 2 0 0 Z " fill="#001168" transform="translate(103,213)"/>
<path d="M0 0 C2.67097922 1.33548961 2.92870374 2.65646396 4.12890625 5.3671875 C4.52400391 6.25277344 4.91910156 7.13835937 5.32617188 8.05078125 C5.73416016 8.98277344 6.14214844 9.91476563 6.5625 10.875 C7.1802832 12.26138672 7.1802832 12.26138672 7.81054688 13.67578125 C10.82410714 20.47232143 10.82410714 20.47232143 12 24 C9 23 9 23 7.24609375 19.90234375 C6.63238409 18.58573019 6.02994714 17.26381715 5.4375 15.9375 C5.13392578 15.29361328 4.83035156 14.64972656 4.51757812 13.98632812 C2.42071591 9.40429589 1.10155488 4.91589416 0 0 Z " fill="#002F96" transform="translate(35,133)"/>
<path d="M0 0 C0.66 0.33 1.32 0.66 2 1 C-2.29 5.29 -6.58 9.58 -11 14 C-11.66 13.67 -12.32 13.34 -13 13 C-11.58791833 11.39179588 -10.17013964 9.78859292 -8.75 8.1875 C-7.96109375 7.29417969 -7.1721875 6.40085937 -6.359375 5.48046875 C-4.34120555 3.35871775 -2.40083295 1.65745577 0 0 Z " fill="#D3D9E1" transform="translate(98,70)"/>
<path d="M0 0 C0.66 0.33 1.32 0.66 2 1 C-4.66254753 6.8878327 -4.66254753 6.8878327 -9 8 C-11.8125 7.625 -11.8125 7.625 -14 7 C-13.67 6.34 -13.34 5.68 -13 5 C-10.71484375 4.5859375 -10.71484375 4.5859375 -7.9375 4.375 C-7.01839844 4.30023438 -6.09929687 4.22546875 -5.15234375 4.1484375 C-4.08693359 4.07496094 -4.08693359 4.07496094 -3 4 C-2.67 3.01 -2.34 2.02 -2 1 C-1.34 0.67 -0.68 0.34 0 0 Z " fill="#F45700" transform="translate(242,215)"/>
<path d="M0 0 C0.66 0.33 1.32 0.66 2 1 C-1.96 4.96 -5.92 8.92 -10 13 C-10 8.83248505 -7.76127698 6.85829482 -5 4 C-3.36927384 2.62294236 -1.7133562 1.27277889 0 0 Z " fill="#2A84D2" transform="translate(107,80)"/>
<path d="M0 0 C0.66 0.33 1.32 0.66 2 1 C-1.3 4.3 -4.6 7.6 -8 11 C-8 7.0234755 -6.61988497 5.9109833 -4 3 C-1.75 1.1875 -1.75 1.1875 0 0 Z " fill="#CAE2F2" transform="translate(116,91)"/>
<path d="M0 0 C5.78461538 4.30769231 5.78461538 4.30769231 6.875 7.8125 C6.936875 8.8953125 6.936875 8.8953125 7 10 C5.02 10.99 5.02 10.99 3 12 C3.2475 11.0925 3.495 10.185 3.75 9.25 C3.8325 8.1775 3.915 7.105 4 6 C2.14567913 3.72855926 2.14567913 3.72855926 0 2 C0 1.34 0 0.68 0 0 Z " fill="#F87601" transform="translate(239,193)"/>
<path d="M0 0 C4.875 4.75 4.875 4.75 6 7 C4.68 7.33 3.36 7.66 2 8 C0.23537317 4.91190305 0 3.76687864 0 0 Z " fill="#2A5896" transform="translate(68,156)"/>
</svg>
